<svg xmlns="http://www.w3.org/2000/svg" id="export" class="canvas" preserveAspectRatio="xMidYMid meet" style="position: absolute; margin: 0px;" width="131" height="1220"><rect id="background" fill="#fff" pointer-events="all" width="131" height="1220"/><g id="origin" transform="translate(5.9203125000000005, 5.9203125000000005) scale(1)"><g id="clusters" class="clusters"/><g id="edge-paths" class="edge-paths"><defs><marker id="arrowhead-vee" viewBox="0 0 10 10" refX="9" refY="5" markerUnits="strokeWidth" markerWidth="8" markerHeight="6" orient="auto" style="fill: rgb(0, 0, 0);"><path d="M 0 0 L 10 5 L 0 10 L 4 5 z" style="stroke-width: 1;"/></marker><marker id="arrowhead-vee-select" viewBox="0 0 10 10" refX="9" refY="5" markerUnits="strokeWidth" markerWidth="8" markerHeight="6" orient="auto" style="fill: rgb(238, 0, 0);"><path d="M 0 0 L 10 5 L 0 10 L 4 5 z" style="stroke-width: 1;"/></marker></defs><path id="edge-conv2d_input&#10;0" class="edge-path" d="M50,20L50,23.416666666666668C50,26.833333333333332,50,33.666666666666664,50,40.5C50,47.333333333333336,50,54.166666666666664,50,57.583333333333336L50,61" style="stroke: rgb(0, 0, 0); stroke-width: 1px; fill: none; marker-end: url(&quot;#arrowhead-vee&quot;);"/><path id="edge-sequential/conv2d/Relu;sequential/conv2d/BiasAdd;sequential/conv2d_1/Conv2D;sequential/conv2d/Conv2D;sequential/conv2d/BiasAdd/ReadVariableOp/resource&#10;16" class="edge-path" d="M50,131L50,134.41666666666666C50,137.83333333333334,50,144.66666666666666,50,151.5C50,158.33333333333334,50,165.16666666666666,50,168.58333333333334L50,172" style="stroke: rgb(0, 0, 0); stroke-width: 1px; fill: none; marker-end: url(&quot;#arrowhead-vee&quot;);"/><path id="edge-sequential/conv2d_1/Relu;sequential/conv2d_1/BiasAdd;sequential/conv2d_1/Conv2D;sequential/conv2d_1/BiasAdd/ReadVariableOp/resource&#10;17" class="edge-path" d="M50,242L50,245.41666666666666C50,248.83333333333334,50,255.66666666666666,50,262.5C50,269.3333333333333,50,276.1666666666667,50,279.5833333333333L50,283" style="stroke: rgb(0, 0, 0); stroke-width: 1px; fill: none; marker-end: url(&quot;#arrowhead-vee&quot;);"/><path id="edge-sequential/max_pooling2d/MaxPool&#10;18" class="edge-path" d="M50,303L50,306.4166666666667C50,309.8333333333333,50,316.6666666666667,50,323.5C50,330.3333333333333,50,337.1666666666667,50,340.5833333333333L50,344" style="stroke: rgb(0, 0, 0); stroke-width: 1px; fill: none; marker-end: url(&quot;#arrowhead-vee&quot;);"/><path id="edge-sequential/conv2d_2/Relu;sequential/conv2d_2/BiasAdd;sequential/conv2d_2/Conv2D;sequential/conv2d_2/BiasAdd/ReadVariableOp/resource&#10;19" class="edge-path" d="M50,414L50,417.4166666666667C50,420.8333333333333,50,427.6666666666667,50,434.5C50,441.3333333333333,50,448.1666666666667,50,451.5833333333333L50,455" style="stroke: rgb(0, 0, 0); stroke-width: 1px; fill: none; marker-end: url(&quot;#arrowhead-vee&quot;);"/><path id="edge-sequential/max_pooling2d_1/MaxPool&#10;20" class="edge-path" d="M50,475L50,478.4166666666667C50,481.8333333333333,50,488.6666666666667,50,495.5C50,502.3333333333333,50,509.1666666666667,50,512.5833333333334L50,516" style="stroke: rgb(0, 0, 0); stroke-width: 1px; fill: none; marker-end: url(&quot;#arrowhead-vee&quot;);"/><path id="edge-sequential/batch_normalization/FusedBatchNormV32&#10;21" class="edge-path" d="M50,554L50,557.4166666666666C50,560.8333333333334,50,567.6666666666666,50,574.5C50,581.3333333333334,50,588.1666666666666,50,591.5833333333334L50,595" style="stroke: rgb(0, 0, 0); stroke-width: 1px; fill: none; marker-end: url(&quot;#arrowhead-vee&quot;);"/><path id="edge-sequential/batch_normalization/FusedBatchNormV33&#10;22" class="edge-path" d="M50,633L50,636.4166666666666C50,639.8333333333334,50,646.6666666666666,50,653.5C50,660.3333333333334,50,667.1666666666666,50,670.5833333333334L50,674" style="stroke: rgb(0, 0, 0); stroke-width: 1px; fill: none; marker-end: url(&quot;#arrowhead-vee&quot;);"/><path id="edge-sequential/conv2d_3/Relu;sequential/conv2d_3/BiasAdd;sequential/conv2d_3/Conv2D;sequential/conv2d_3/BiasAdd/ReadVariableOp/resource&#10;23" class="edge-path" d="M50,744L50,747.4166666666666C50,750.8333333333334,50,757.6666666666666,50,764.5C50,771.3333333333334,50,778.1666666666666,50,781.5833333333334L50,785" style="stroke: rgb(0, 0, 0); stroke-width: 1px; fill: none; marker-end: url(&quot;#arrowhead-vee&quot;);"/><path id="edge-sequential/max_pooling2d_2/MaxPool&#10;24" class="edge-path" d="M50,805L50,808.4166666666666C50,811.8333333333334,50,818.6666666666666,50,825.5C50,832.3333333333334,50,839.1666666666666,50,842.5833333333334L50,846" style="stroke: rgb(0, 0, 0); stroke-width: 1px; fill: none; marker-end: url(&quot;#arrowhead-vee&quot;);"/><path id="edge-sequential/flatten/Reshape&#10;25" class="edge-path" d="M50,884L50,887.4166666666666C50,890.8333333333334,50,897.6666666666666,50,904.5C50,911.3333333333334,50,918.1666666666666,50,921.5833333333334L50,925" style="stroke: rgb(0, 0, 0); stroke-width: 1px; fill: none; marker-end: url(&quot;#arrowhead-vee&quot;);"/><path id="edge-sequential/dense/Relu;sequential/dense/BiasAdd&#10;26" class="edge-path" d="M50,995L50,998.4166666666666C50,1001.8333333333334,50,1008.6666666666666,50,1015.5C50,1022.3333333333334,50,1029.1666666666667,50,1032.5833333333333L50,1036" style="stroke: rgb(0, 0, 0); stroke-width: 1px; fill: none; marker-end: url(&quot;#arrowhead-vee&quot;);"/><path id="edge-sequential/dense_1/BiasAdd&#10;27" class="edge-path" d="M50,1086L50,1089.4166666666667C50,1092.8333333333333,50,1099.6666666666667,50,1106.5C50,1113.3333333333333,50,1120.1666666666667,50,1123.5833333333333L50,1127" style="stroke: rgb(0, 0, 0); stroke-width: 1px; fill: none; marker-end: url(&quot;#arrowhead-vee&quot;);"/><path id="edge-Identity&#10;28" class="edge-path" d="M50,1147L50,1150.4166666666667C50,1153.8333333333333,50,1160.6666666666667,50,1167.5C50,1174.3333333333333,50,1181.1666666666667,50,1184.5833333333333L50,1188" style="stroke: rgb(0, 0, 0); stroke-width: 1px; fill: none; marker-end: url(&quot;#arrowhead-vee&quot;);"/></g><g id="edge-labels" class="edge-labels"><g class="edge-label" id="edge-label-edge-conv2d_input&#10;0" transform="translate(80.3828125,40.5)" style="opacity: 1;"><g transform="translate(-25.3828125,-5.5)"><text style="font-family: -apple-system, BlinkMacSystemFont, &quot;Segoe WPC&quot;, &quot;Segoe UI&quot;, Ubuntu, &quot;Droid Sans&quot;, sans-serif, &quot;PingFang SC&quot;; font-size: 10px;"><tspan xml:space="preserve" dy="1em" x="1">1×32×32×3</tspan></text></g></g><g class="edge-label" id="edge-label-edge-sequential/conv2d/Relu;sequential/conv2d/BiasAdd;sequential/conv2d_1/Conv2D;sequential/conv2d/Conv2D;sequential/conv2d/BiasAdd/ReadVariableOp/resource&#10;16" transform="translate(83.3828125,151.5)" style="opacity: 1;"><g transform="translate(-28.3828125,-5.5)"><text style="font-family: -apple-system, BlinkMacSystemFont, &quot;Segoe WPC&quot;, &quot;Segoe UI&quot;, Ubuntu, &quot;Droid Sans&quot;, sans-serif, &quot;PingFang SC&quot;; font-size: 10px;"><tspan xml:space="preserve" dy="1em" x="1">1×32×32×64</tspan></text></g></g><g class="edge-label" id="edge-label-edge-sequential/conv2d_1/Relu;sequential/conv2d_1/BiasAdd;sequential/conv2d_1/Conv2D;sequential/conv2d_1/BiasAdd/ReadVariableOp/resource&#10;17" transform="translate(83.3828125,262.5)" style="opacity: 1;"><g transform="translate(-28.3828125,-5.5)"><text style="font-family: -apple-system, BlinkMacSystemFont, &quot;Segoe WPC&quot;, &quot;Segoe UI&quot;, Ubuntu, &quot;Droid Sans&quot;, sans-serif, &quot;PingFang SC&quot;; font-size: 10px;"><tspan xml:space="preserve" dy="1em" x="1">1×32×32×64</tspan></text></g></g><g class="edge-label" id="edge-label-edge-sequential/max_pooling2d/MaxPool&#10;18" transform="translate(83.3828125,323.5)" style="opacity: 1;"><g transform="translate(-28.3828125,-5.5)"><text style="font-family: -apple-system, BlinkMacSystemFont, &quot;Segoe WPC&quot;, &quot;Segoe UI&quot;, Ubuntu, &quot;Droid Sans&quot;, sans-serif, &quot;PingFang SC&quot;; font-size: 10px;"><tspan xml:space="preserve" dy="1em" x="1">1×16×16×64</tspan></text></g></g><g class="edge-label" id="edge-label-edge-sequential/conv2d_2/Relu;sequential/conv2d_2/BiasAdd;sequential/conv2d_2/Conv2D;sequential/conv2d_2/BiasAdd/ReadVariableOp/resource&#10;19" transform="translate(86.203125,434.5)" style="opacity: 1;"><g transform="translate(-31.203125,-5.5)"><text style="font-family: -apple-system, BlinkMacSystemFont, &quot;Segoe WPC&quot;, &quot;Segoe UI&quot;, Ubuntu, &quot;Droid Sans&quot;, sans-serif, &quot;PingFang SC&quot;; font-size: 10px;"><tspan xml:space="preserve" dy="1em" x="1">1×16×16×128</tspan></text></g></g><g class="edge-label" id="edge-label-edge-sequential/max_pooling2d_1/MaxPool&#10;20" transform="translate(80.5625,495.5)" style="opacity: 1;"><g transform="translate(-25.5625,-5.5)"><text style="font-family: -apple-system, BlinkMacSystemFont, &quot;Segoe WPC&quot;, &quot;Segoe UI&quot;, Ubuntu, &quot;Droid Sans&quot;, sans-serif, &quot;PingFang SC&quot;; font-size: 10px;"><tspan xml:space="preserve" dy="1em" x="1">1×8×8×128</tspan></text></g></g><g class="edge-label" id="edge-label-edge-sequential/batch_normalization/FusedBatchNormV32&#10;21" transform="translate(80.5625,574.5)" style="opacity: 1;"><g transform="translate(-25.5625,-5.5)"><text style="font-family: -apple-system, BlinkMacSystemFont, &quot;Segoe WPC&quot;, &quot;Segoe UI&quot;, Ubuntu, &quot;Droid Sans&quot;, sans-serif, &quot;PingFang SC&quot;; font-size: 10px;"><tspan xml:space="preserve" dy="1em" x="1">1×8×8×128</tspan></text></g></g><g class="edge-label" id="edge-label-edge-sequential/batch_normalization/FusedBatchNormV33&#10;22" transform="translate(80.5625,653.5)" style="opacity: 1;"><g transform="translate(-25.5625,-5.5)"><text style="font-family: -apple-system, BlinkMacSystemFont, &quot;Segoe WPC&quot;, &quot;Segoe UI&quot;, Ubuntu, &quot;Droid Sans&quot;, sans-serif, &quot;PingFang SC&quot;; font-size: 10px;"><tspan xml:space="preserve" dy="1em" x="1">1×8×8×128</tspan></text></g></g><g class="edge-label" id="edge-label-edge-sequential/conv2d_3/Relu;sequential/conv2d_3/BiasAdd;sequential/conv2d_3/Conv2D;sequential/conv2d_3/BiasAdd/ReadVariableOp/resource&#10;23" transform="translate(80.5625,764.5)" style="opacity: 1;"><g transform="translate(-25.5625,-5.5)"><text style="font-family: -apple-system, BlinkMacSystemFont, &quot;Segoe WPC&quot;, &quot;Segoe UI&quot;, Ubuntu, &quot;Droid Sans&quot;, sans-serif, &quot;PingFang SC&quot;; font-size: 10px;"><tspan xml:space="preserve" dy="1em" x="1">1×8×8×256</tspan></text></g></g><g class="edge-label" id="edge-label-edge-sequential/max_pooling2d_2/MaxPool&#10;24" transform="translate(80.5625,825.5)" style="opacity: 1;"><g transform="translate(-25.5625,-5.5)"><text style="font-family: -apple-system, BlinkMacSystemFont, &quot;Segoe WPC&quot;, &quot;Segoe UI&quot;, Ubuntu, &quot;Droid Sans&quot;, sans-serif, &quot;PingFang SC&quot;; font-size: 10px;"><tspan xml:space="preserve" dy="1em" x="1">1×4×4×256</tspan></text></g></g><g class="edge-label" id="edge-label-edge-sequential/flatten/Reshape&#10;25" transform="translate(72.1015625,904.5)" style="opacity: 1;"><g transform="translate(-17.1015625,-5.5)"><text style="font-family: -apple-system, BlinkMacSystemFont, &quot;Segoe WPC&quot;, &quot;Segoe UI&quot;, Ubuntu, &quot;Droid Sans&quot;, sans-serif, &quot;PingFang SC&quot;; font-size: 10px;"><tspan xml:space="preserve" dy="1em" x="1">1×4096</tspan></text></g></g><g class="edge-label" id="edge-label-edge-sequential/dense/Relu;sequential/dense/BiasAdd&#10;26" transform="translate(69.28125,1015.5)" style="opacity: 1;"><g transform="translate(-14.28125,-5.5)"><text style="font-family: -apple-system, BlinkMacSystemFont, &quot;Segoe WPC&quot;, &quot;Segoe UI&quot;, Ubuntu, &quot;Droid Sans&quot;, sans-serif, &quot;PingFang SC&quot;; font-size: 10px;"><tspan xml:space="preserve" dy="1em" x="1">1×128</tspan></text></g></g><g class="edge-label" id="edge-label-edge-sequential/dense_1/BiasAdd&#10;27" transform="translate(66.4609375,1106.5)" style="opacity: 1;"><g transform="translate(-11.4609375,-5.5)"><text style="font-family: -apple-system, BlinkMacSystemFont, &quot;Segoe WPC&quot;, &quot;Segoe UI&quot;, Ubuntu, &quot;Droid Sans&quot;, sans-serif, &quot;PingFang SC&quot;; font-size: 10px;"><tspan xml:space="preserve" dy="1em" x="1">1×10</tspan></text></g></g><g class="edge-label" id="edge-label-edge-Identity&#10;28" transform="translate(66.4609375,1167.5)" style="opacity: 1;"><g transform="translate(-11.4609375,-5.5)"><text style="font-family: -apple-system, BlinkMacSystemFont, &quot;Segoe WPC&quot;, &quot;Segoe UI&quot;, Ubuntu, &quot;Droid Sans&quot;, sans-serif, &quot;PingFang SC&quot;; font-size: 10px;"><tspan xml:space="preserve" dy="1em" x="1">1×10</tspan></text></g></g></g><g id="nodes" class="nodes"><g id="node-id-0" class="node graph-node" transform="translate(50,96)" style="opacity: 1;"><g transform="translate(-50,-35)"><g class="node-item node-item-type node-item-type-layer" transform="translate(0,0)"><path d="M5,0h90a5,5 0 0 1 5,5v15a0,0 0 0 1 0,0h-100a0,0 0 0 1 0,0v-15a5,5 0 0 1 5,-5z" style="stroke: rgb(0, 0, 0); fill: rgb(51, 85, 136); stroke-width: 0;"/><text x="6" y="14" style="font-family: -apple-system, BlinkMacSystemFont, &quot;Segoe WPC&quot;, &quot;Segoe UI&quot;, Ubuntu, &quot;Droid Sans&quot;, sans-serif, &quot;PingFang SC&quot;; font-size: 11px; text-rendering: geometricprecision; fill: rgb(255, 255, 255);">Conv2D</text><title>0</title></g><g class="node-attribute" transform="translate(0,20)"><path d="M0,0h100a0,0 0 0 1 0,0v30a0,0 0 0 1 0,0h-100a0,0 0 0 1 0,0v-30a0,0 0 0 1 0,0z" style="stroke: rgb(0, 0, 0); fill: rgb(255, 255, 255); stroke-width: 0;"/><text id="initializer-sequential/conv2d/Conv2D&#10;12" xml:space="preserve" x="6" y="12" style="font-family: -apple-system, BlinkMacSystemFont, &quot;Segoe WPC&quot;, &quot;Segoe UI&quot;, Ubuntu, &quot;Droid Sans&quot;, sans-serif, &quot;PingFang SC&quot;; font-size: 9px; font-weight: normal; text-rendering: geometricprecision;"><title>float32[64,3,3,3]</title><tspan style="font-weight: bold;">filter</tspan><tspan>〈64×3×3×3〉</tspan></text><text id="initializer-sequential/conv2d/BiasAdd/ReadVariableOp/resource&#10;1" xml:space="preserve" x="6" y="24" style="font-family: -apple-system, BlinkMacSystemFont, &quot;Segoe WPC&quot;, &quot;Segoe UI&quot;, Ubuntu, &quot;Droid Sans&quot;, sans-serif, &quot;PingFang SC&quot;; font-size: 9px; font-weight: normal; text-rendering: geometricprecision;"><title>float32[64]</title><tspan style="font-weight: bold;">bias</tspan><tspan>〈64〉</tspan></text><line class="node" x1="0" x2="100" y1="0" y2="0" style="stroke: rgb(51, 51, 51); fill: none; stroke-width: 1px;"/></g><g class="node-item node-item-type node-item-type-activation" transform="translate(0,50)"><path d="M0,0h100a0,0 0 0 1 0,0v15a5,5 0 0 1 -5,5h-90a5,5 0 0 1 -5,-5v-15a0,0 0 0 1 0,0z" style="stroke: rgb(0, 0, 0); fill: rgb(75, 27, 22); stroke-width: 0;"/><text x="6" y="14" style="font-family: -apple-system, BlinkMacSystemFont, &quot;Segoe WPC&quot;, &quot;Segoe UI&quot;, Ubuntu, &quot;Droid Sans&quot;, sans-serif, &quot;PingFang SC&quot;; font-size: 11px; text-rendering: geometricprecision; fill: rgb(255, 255, 255);">Relu</text></g><line class="node" x1="0" x2="100" y1="50" y2="50" style="stroke: rgb(51, 51, 51); fill: none; stroke-width: 1px;"/><path class="node border" d="M5,0h90a5,5 0 0 1 5,5v60a5,5 0 0 1 -5,5h-90a5,5 0 0 1 -5,-5v-60a5,5 0 0 1 5,-5z" style="stroke: rgb(51, 51, 51); fill: none; stroke-width: 1px;"/></g></g><g id="node-id-1" class="node graph-node" transform="translate(50,207)" style="opacity: 1;"><g transform="translate(-50,-35)"><g class="node-item node-item-type node-item-type-layer" transform="translate(0,0)"><path d="M5,0h90a5,5 0 0 1 5,5v15a0,0 0 0 1 0,0h-100a0,0 0 0 1 0,0v-15a5,5 0 0 1 5,-5z" style="stroke: rgb(0, 0, 0); fill: rgb(51, 85, 136); stroke-width: 0;"/><text x="6" y="14" style="font-family: -apple-system, BlinkMacSystemFont, &quot;Segoe WPC&quot;, &quot;Segoe UI&quot;, Ubuntu, &quot;Droid Sans&quot;, sans-serif, &quot;PingFang SC&quot;; font-size: 11px; text-rendering: geometricprecision; fill: rgb(255, 255, 255);">Conv2D</text><title>1</title></g><g class="node-attribute" transform="translate(0,20)"><path d="M0,0h100a0,0 0 0 1 0,0v30a0,0 0 0 1 0,0h-100a0,0 0 0 1 0,0v-30a0,0 0 0 1 0,0z" style="stroke: rgb(0, 0, 0); fill: rgb(255, 255, 255); stroke-width: 0;"/><text id="initializer-sequential/conv2d_1/Conv2D&#10;13" xml:space="preserve" x="6" y="12" style="font-family: -apple-system, BlinkMacSystemFont, &quot;Segoe WPC&quot;, &quot;Segoe UI&quot;, Ubuntu, &quot;Droid Sans&quot;, sans-serif, &quot;PingFang SC&quot;; font-size: 9px; font-weight: normal; text-rendering: geometricprecision;"><title>float32[64,3,3,64]</title><tspan style="font-weight: bold;">filter</tspan><tspan>〈64×3×3×64〉</tspan></text><text id="initializer-sequential/conv2d_1/BiasAdd/ReadVariableOp/resource&#10;2" xml:space="preserve" x="6" y="24" style="font-family: -apple-system, BlinkMacSystemFont, &quot;Segoe WPC&quot;, &quot;Segoe UI&quot;, Ubuntu, &quot;Droid Sans&quot;, sans-serif, &quot;PingFang SC&quot;; font-size: 9px; font-weight: normal; text-rendering: geometricprecision;"><title>float32[64]</title><tspan style="font-weight: bold;">bias</tspan><tspan>〈64〉</tspan></text><line class="node" x1="0" x2="100" y1="0" y2="0" style="stroke: rgb(51, 51, 51); fill: none; stroke-width: 1px;"/></g><g class="node-item node-item-type node-item-type-activation" transform="translate(0,50)"><path d="M0,0h100a0,0 0 0 1 0,0v15a5,5 0 0 1 -5,5h-90a5,5 0 0 1 -5,-5v-15a0,0 0 0 1 0,0z" style="stroke: rgb(0, 0, 0); fill: rgb(75, 27, 22); stroke-width: 0;"/><text x="6" y="14" style="font-family: -apple-system, BlinkMacSystemFont, &quot;Segoe WPC&quot;, &quot;Segoe UI&quot;, Ubuntu, &quot;Droid Sans&quot;, sans-serif, &quot;PingFang SC&quot;; font-size: 11px; text-rendering: geometricprecision; fill: rgb(255, 255, 255);">Relu</text></g><line class="node" x1="0" x2="100" y1="50" y2="50" style="stroke: rgb(51, 51, 51); fill: none; stroke-width: 1px;"/><path class="node border" d="M5,0h90a5,5 0 0 1 5,5v60a5,5 0 0 1 -5,5h-90a5,5 0 0 1 -5,-5v-60a5,5 0 0 1 5,-5z" style="stroke: rgb(51, 51, 51); fill: none; stroke-width: 1px;"/></g></g><g id="node-id-2" class="node graph-node" transform="translate(50,293)" style="opacity: 1;"><g transform="translate(-35.796875,-10)"><g class="node-item node-item-type node-item-type-pool" transform="translate(0,0)"><path d="M5,0h61.59375a5,5 0 0 1 5,5v10a5,5 0 0 1 -5,5h-61.59375a5,5 0 0 1 -5,-5v-10a5,5 0 0 1 5,-5z" style="stroke: rgb(0, 0, 0); fill: rgb(51, 85, 51); stroke-width: 0;"/><text x="6" y="14" style="font-family: -apple-system, BlinkMacSystemFont, &quot;Segoe WPC&quot;, &quot;Segoe UI&quot;, Ubuntu, &quot;Droid Sans&quot;, sans-serif, &quot;PingFang SC&quot;; font-size: 11px; text-rendering: geometricprecision; fill: rgb(255, 255, 255);">MaxPool2D</text><title>2</title></g><path class="node border" d="M5,0h61.59375a5,5 0 0 1 5,5v10a5,5 0 0 1 -5,5h-61.59375a5,5 0 0 1 -5,-5v-10a5,5 0 0 1 5,-5z" style="stroke: rgb(51, 51, 51); fill: none; stroke-width: 1px;"/></g></g><g id="node-id-3" class="node graph-node" transform="translate(50,379)" style="opacity: 1;"><g transform="translate(-50,-35)"><g class="node-item node-item-type node-item-type-layer" transform="translate(0,0)"><path d="M5,0h90a5,5 0 0 1 5,5v15a0,0 0 0 1 0,0h-100a0,0 0 0 1 0,0v-15a5,5 0 0 1 5,-5z" style="stroke: rgb(0, 0, 0); fill: rgb(51, 85, 136); stroke-width: 0;"/><text x="6" y="14" style="font-family: -apple-system, BlinkMacSystemFont, &quot;Segoe WPC&quot;, &quot;Segoe UI&quot;, Ubuntu, &quot;Droid Sans&quot;, sans-serif, &quot;PingFang SC&quot;; font-size: 11px; text-rendering: geometricprecision; fill: rgb(255, 255, 255);">Conv2D</text><title>3</title></g><g class="node-attribute" transform="translate(0,20)"><path d="M0,0h100a0,0 0 0 1 0,0v30a0,0 0 0 1 0,0h-100a0,0 0 0 1 0,0v-30a0,0 0 0 1 0,0z" style="stroke: rgb(0, 0, 0); fill: rgb(255, 255, 255); stroke-width: 0;"/><text id="initializer-sequential/conv2d_2/Conv2D&#10;14" xml:space="preserve" x="6" y="12" style="font-family: -apple-system, BlinkMacSystemFont, &quot;Segoe WPC&quot;, &quot;Segoe UI&quot;, Ubuntu, &quot;Droid Sans&quot;, sans-serif, &quot;PingFang SC&quot;; font-size: 9px; font-weight: normal; text-rendering: geometricprecision;"><title>float32[128,3,3,64]</title><tspan style="font-weight: bold;">filter</tspan><tspan>〈128×3×3×64〉</tspan></text><text id="initializer-sequential/conv2d_2/BiasAdd/ReadVariableOp/resource&#10;3" xml:space="preserve" x="6" y="24" style="font-family: -apple-system, BlinkMacSystemFont, &quot;Segoe WPC&quot;, &quot;Segoe UI&quot;, Ubuntu, &quot;Droid Sans&quot;, sans-serif, &quot;PingFang SC&quot;; font-size: 9px; font-weight: normal; text-rendering: geometricprecision;"><title>float32[128]</title><tspan style="font-weight: bold;">bias</tspan><tspan>〈128〉</tspan></text><line class="node" x1="0" x2="100" y1="0" y2="0" style="stroke: rgb(51, 51, 51); fill: none; stroke-width: 1px;"/></g><g class="node-item node-item-type node-item-type-activation" transform="translate(0,50)"><path d="M0,0h100a0,0 0 0 1 0,0v15a5,5 0 0 1 -5,5h-90a5,5 0 0 1 -5,-5v-15a0,0 0 0 1 0,0z" style="stroke: rgb(0, 0, 0); fill: rgb(75, 27, 22); stroke-width: 0;"/><text x="6" y="14" style="font-family: -apple-system, BlinkMacSystemFont, &quot;Segoe WPC&quot;, &quot;Segoe UI&quot;, Ubuntu, &quot;Droid Sans&quot;, sans-serif, &quot;PingFang SC&quot;; font-size: 11px; text-rendering: geometricprecision; fill: rgb(255, 255, 255);">Relu</text></g><line class="node" x1="0" x2="100" y1="50" y2="50" style="stroke: rgb(51, 51, 51); fill: none; stroke-width: 1px;"/><path class="node border" d="M5,0h90a5,5 0 0 1 5,5v60a5,5 0 0 1 -5,5h-90a5,5 0 0 1 -5,-5v-60a5,5 0 0 1 5,-5z" style="stroke: rgb(51, 51, 51); fill: none; stroke-width: 1px;"/></g></g><g id="node-id-4" class="node graph-node" transform="translate(50,465)" style="opacity: 1;"><g transform="translate(-35.796875,-10)"><g class="node-item node-item-type node-item-type-pool" transform="translate(0,0)"><path d="M5,0h61.59375a5,5 0 0 1 5,5v10a5,5 0 0 1 -5,5h-61.59375a5,5 0 0 1 -5,-5v-10a5,5 0 0 1 5,-5z" style="stroke: rgb(0, 0, 0); fill: rgb(51, 85, 51); stroke-width: 0;"/><text x="6" y="14" style="font-family: -apple-system, BlinkMacSystemFont, &quot;Segoe WPC&quot;, &quot;Segoe UI&quot;, Ubuntu, &quot;Droid Sans&quot;, sans-serif, &quot;PingFang SC&quot;; font-size: 11px; text-rendering: geometricprecision; fill: rgb(255, 255, 255);">MaxPool2D</text><title>4</title></g><path class="node border" d="M5,0h61.59375a5,5 0 0 1 5,5v10a5,5 0 0 1 -5,5h-61.59375a5,5 0 0 1 -5,-5v-10a5,5 0 0 1 5,-5z" style="stroke: rgb(51, 51, 51); fill: none; stroke-width: 1px;"/></g></g><g id="node-id-5" class="node graph-node" transform="translate(50,535)" style="opacity: 1;"><g transform="translate(-50,-19)"><g class="node-item node-item-type" transform="translate(0,0)"><path d="M5,0h90a5,5 0 0 1 5,5v15a0,0 0 0 1 0,0h-100a0,0 0 0 1 0,0v-15a5,5 0 0 1 5,-5z" style="stroke: rgb(0, 0, 0); fill: rgb(0, 0, 0); stroke-width: 0;"/><text x="6" y="14" style="font-family: -apple-system, BlinkMacSystemFont, &quot;Segoe WPC&quot;, &quot;Segoe UI&quot;, Ubuntu, &quot;Droid Sans&quot;, sans-serif, &quot;PingFang SC&quot;; font-size: 11px; text-rendering: geometricprecision; fill: rgb(255, 255, 255);">Mul</text><title>5</title></g><g class="node-attribute" transform="translate(0,20)"><path d="M0,0h100a0,0 0 0 1 0,0v13a5,5 0 0 1 -5,5h-90a5,5 0 0 1 -5,-5v-13a0,0 0 0 1 0,0z" style="stroke: rgb(0, 0, 0); fill: rgb(255, 255, 255); stroke-width: 0;"/><text id="initializer-sequential/batch_normalization/FusedBatchNormV31&#10;9" xml:space="preserve" x="6" y="12" style="font-family: -apple-system, BlinkMacSystemFont, &quot;Segoe WPC&quot;, &quot;Segoe UI&quot;, Ubuntu, &quot;Droid Sans&quot;, sans-serif, &quot;PingFang SC&quot;; font-size: 9px; font-weight: normal; text-rendering: geometricprecision;"><title>float32[128]</title><tspan style="font-weight: bold;">B</tspan><tspan>〈128〉</tspan></text><line class="node" x1="0" x2="100" y1="0" y2="0" style="stroke: rgb(51, 51, 51); fill: none; stroke-width: 1px;"/></g><path class="node border" d="M5,0h90a5,5 0 0 1 5,5v28a5,5 0 0 1 -5,5h-90a5,5 0 0 1 -5,-5v-28a5,5 0 0 1 5,-5z" style="stroke: rgb(51, 51, 51); fill: none; stroke-width: 1px;"/></g></g><g id="node-id-6" class="node graph-node" transform="translate(50,614)" style="opacity: 1;"><g transform="translate(-50,-19)"><g class="node-item node-item-type" transform="translate(0,0)"><path d="M5,0h90a5,5 0 0 1 5,5v15a0,0 0 0 1 0,0h-100a0,0 0 0 1 0,0v-15a5,5 0 0 1 5,-5z" style="stroke: rgb(0, 0, 0); fill: rgb(0, 0, 0); stroke-width: 0;"/><text x="6" y="14" style="font-family: -apple-system, BlinkMacSystemFont, &quot;Segoe WPC&quot;, &quot;Segoe UI&quot;, Ubuntu, &quot;Droid Sans&quot;, sans-serif, &quot;PingFang SC&quot;; font-size: 11px; text-rendering: geometricprecision; fill: rgb(255, 255, 255);">Add</text><title>6</title></g><g class="node-attribute" transform="translate(0,20)"><path d="M0,0h100a0,0 0 0 1 0,0v13a5,5 0 0 1 -5,5h-90a5,5 0 0 1 -5,-5v-13a0,0 0 0 1 0,0z" style="stroke: rgb(0, 0, 0); fill: rgb(255, 255, 255); stroke-width: 0;"/><text id="initializer-sequential/batch_normalization/FusedBatchNormV3&#10;8" xml:space="preserve" x="6" y="12" style="font-family: -apple-system, BlinkMacSystemFont, &quot;Segoe WPC&quot;, &quot;Segoe UI&quot;, Ubuntu, &quot;Droid Sans&quot;, sans-serif, &quot;PingFang SC&quot;; font-size: 9px; font-weight: normal; text-rendering: geometricprecision;"><title>float32[128]</title><tspan style="font-weight: bold;">B</tspan><tspan>〈128〉</tspan></text><line class="node" x1="0" x2="100" y1="0" y2="0" style="stroke: rgb(51, 51, 51); fill: none; stroke-width: 1px;"/></g><path class="node border" d="M5,0h90a5,5 0 0 1 5,5v28a5,5 0 0 1 -5,5h-90a5,5 0 0 1 -5,-5v-28a5,5 0 0 1 5,-5z" style="stroke: rgb(51, 51, 51); fill: none; stroke-width: 1px;"/></g></g><g id="node-id-7" class="node graph-node" transform="translate(50,709)" style="opacity: 1;"><g transform="translate(-50,-35)"><g class="node-item node-item-type node-item-type-layer" transform="translate(0,0)"><path d="M5,0h90a5,5 0 0 1 5,5v15a0,0 0 0 1 0,0h-100a0,0 0 0 1 0,0v-15a5,5 0 0 1 5,-5z" style="stroke: rgb(0, 0, 0); fill: rgb(51, 85, 136); stroke-width: 0;"/><text x="6" y="14" style="font-family: -apple-system, BlinkMacSystemFont, &quot;Segoe WPC&quot;, &quot;Segoe UI&quot;, Ubuntu, &quot;Droid Sans&quot;, sans-serif, &quot;PingFang SC&quot;; font-size: 11px; text-rendering: geometricprecision; fill: rgb(255, 255, 255);">Conv2D</text><title>7</title></g><g class="node-attribute" transform="translate(0,20)"><path d="M0,0h100a0,0 0 0 1 0,0v30a0,0 0 0 1 0,0h-100a0,0 0 0 1 0,0v-30a0,0 0 0 1 0,0z" style="stroke: rgb(0, 0, 0); fill: rgb(255, 255, 255); stroke-width: 0;"/><text id="initializer-sequential/conv2d_3/Conv2D&#10;15" xml:space="preserve" x="6" y="12" style="font-family: -apple-system, BlinkMacSystemFont, &quot;Segoe WPC&quot;, &quot;Segoe UI&quot;, Ubuntu, &quot;Droid Sans&quot;, sans-serif, &quot;PingFang SC&quot;; font-size: 9px; font-weight: normal; text-rendering: geometricprecision;"><title>float32[256,3,3,128]</title><tspan style="font-weight: bold;">filter</tspan><tspan>〈256×3×3×128〉</tspan></text><text id="initializer-sequential/conv2d_3/BiasAdd/ReadVariableOp/resource&#10;4" xml:space="preserve" x="6" y="24" style="font-family: -apple-system, BlinkMacSystemFont, &quot;Segoe WPC&quot;, &quot;Segoe UI&quot;, Ubuntu, &quot;Droid Sans&quot;, sans-serif, &quot;PingFang SC&quot;; font-size: 9px; font-weight: normal; text-rendering: geometricprecision;"><title>float32[256]</title><tspan style="font-weight: bold;">bias</tspan><tspan>〈256〉</tspan></text><line class="node" x1="0" x2="100" y1="0" y2="0" style="stroke: rgb(51, 51, 51); fill: none; stroke-width: 1px;"/></g><g class="node-item node-item-type node-item-type-activation" transform="translate(0,50)"><path d="M0,0h100a0,0 0 0 1 0,0v15a5,5 0 0 1 -5,5h-90a5,5 0 0 1 -5,-5v-15a0,0 0 0 1 0,0z" style="stroke: rgb(0, 0, 0); fill: rgb(75, 27, 22); stroke-width: 0;"/><text x="6" y="14" style="font-family: -apple-system, BlinkMacSystemFont, &quot;Segoe WPC&quot;, &quot;Segoe UI&quot;, Ubuntu, &quot;Droid Sans&quot;, sans-serif, &quot;PingFang SC&quot;; font-size: 11px; text-rendering: geometricprecision; fill: rgb(255, 255, 255);">Relu</text></g><line class="node" x1="0" x2="100" y1="50" y2="50" style="stroke: rgb(51, 51, 51); fill: none; stroke-width: 1px;"/><path class="node border" d="M5,0h90a5,5 0 0 1 5,5v60a5,5 0 0 1 -5,5h-90a5,5 0 0 1 -5,-5v-60a5,5 0 0 1 5,-5z" style="stroke: rgb(51, 51, 51); fill: none; stroke-width: 1px;"/></g></g><g id="node-id-8" class="node graph-node" transform="translate(50,795)" style="opacity: 1;"><g transform="translate(-35.796875,-10)"><g class="node-item node-item-type node-item-type-pool" transform="translate(0,0)"><path d="M5,0h61.59375a5,5 0 0 1 5,5v10a5,5 0 0 1 -5,5h-61.59375a5,5 0 0 1 -5,-5v-10a5,5 0 0 1 5,-5z" style="stroke: rgb(0, 0, 0); fill: rgb(51, 85, 51); stroke-width: 0;"/><text x="6" y="14" style="font-family: -apple-system, BlinkMacSystemFont, &quot;Segoe WPC&quot;, &quot;Segoe UI&quot;, Ubuntu, &quot;Droid Sans&quot;, sans-serif, &quot;PingFang SC&quot;; font-size: 11px; text-rendering: geometricprecision; fill: rgb(255, 255, 255);">MaxPool2D</text><title>8</title></g><path class="node border" d="M5,0h61.59375a5,5 0 0 1 5,5v10a5,5 0 0 1 -5,5h-61.59375a5,5 0 0 1 -5,-5v-10a5,5 0 0 1 5,-5z" style="stroke: rgb(51, 51, 51); fill: none; stroke-width: 1px;"/></g></g><g id="node-id-9" class="node graph-node" transform="translate(50,865)" style="opacity: 1;"><g transform="translate(-50,-19)"><g class="node-item node-item-type node-item-type-shape" transform="translate(0,0)"><path d="M5,0h90a5,5 0 0 1 5,5v15a0,0 0 0 1 0,0h-100a0,0 0 0 1 0,0v-15a5,5 0 0 1 5,-5z" style="stroke: rgb(0, 0, 0); fill: rgb(108, 79, 71); stroke-width: 0;"/><text x="6" y="14" style="font-family: -apple-system, BlinkMacSystemFont, &quot;Segoe WPC&quot;, &quot;Segoe UI&quot;, Ubuntu, &quot;Droid Sans&quot;, sans-serif, &quot;PingFang SC&quot;; font-size: 11px; text-rendering: geometricprecision; fill: rgb(255, 255, 255);">Reshape</text><title>9</title></g><g class="node-attribute" transform="translate(0,20)"><path d="M0,0h100a0,0 0 0 1 0,0v13a5,5 0 0 1 -5,5h-90a5,5 0 0 1 -5,-5v-13a0,0 0 0 1 0,0z" style="stroke: rgb(0, 0, 0); fill: rgb(255, 255, 255); stroke-width: 0;"/><text id="initializer-sequential/flatten/Const&#10;7" xml:space="preserve" x="6" y="12" style="font-family: -apple-system, BlinkMacSystemFont, &quot;Segoe WPC&quot;, &quot;Segoe UI&quot;, Ubuntu, &quot;Droid Sans&quot;, sans-serif, &quot;PingFang SC&quot;; font-size: 9px; font-weight: normal; text-rendering: geometricprecision;"><title>int32[2]</title><tspan style="font-weight: bold;">shape</tspan><tspan>〈2〉</tspan></text><line class="node" x1="0" x2="100" y1="0" y2="0" style="stroke: rgb(51, 51, 51); fill: none; stroke-width: 1px;"/></g><path class="node border" d="M5,0h90a5,5 0 0 1 5,5v28a5,5 0 0 1 -5,5h-90a5,5 0 0 1 -5,-5v-28a5,5 0 0 1 5,-5z" style="stroke: rgb(51, 51, 51); fill: none; stroke-width: 1px;"/></g></g><g id="node-id-10" class="node graph-node" transform="translate(50,960)" style="opacity: 1;"><g transform="translate(-50,-35)"><g class="node-item node-item-type node-item-type-layer" transform="translate(0,0)"><path d="M5,0h90a5,5 0 0 1 5,5v15a0,0 0 0 1 0,0h-100a0,0 0 0 1 0,0v-15a5,5 0 0 1 5,-5z" style="stroke: rgb(0, 0, 0); fill: rgb(51, 85, 136); stroke-width: 0;"/><text x="6" y="14" style="font-family: -apple-system, BlinkMacSystemFont, &quot;Segoe WPC&quot;, &quot;Segoe UI&quot;, Ubuntu, &quot;Droid Sans&quot;, sans-serif, &quot;PingFang SC&quot;; font-size: 11px; text-rendering: geometricprecision; fill: rgb(255, 255, 255);">FullyConnected</text><title>10</title></g><g class="node-attribute" transform="translate(0,20)"><path d="M0,0h100a0,0 0 0 1 0,0v30a0,0 0 0 1 0,0h-100a0,0 0 0 1 0,0v-30a0,0 0 0 1 0,0z" style="stroke: rgb(0, 0, 0); fill: rgb(255, 255, 255); stroke-width: 0;"/><text id="initializer-sequential/dense/MatMul&#10;10" xml:space="preserve" x="6" y="12" style="font-family: -apple-system, BlinkMacSystemFont, &quot;Segoe WPC&quot;, &quot;Segoe UI&quot;, Ubuntu, &quot;Droid Sans&quot;, sans-serif, &quot;PingFang SC&quot;; font-size: 9px; font-weight: normal; text-rendering: geometricprecision;"><title>float32[128,4096]</title><tspan style="font-weight: bold;">weights</tspan><tspan>〈128×4096〉</tspan></text><text id="initializer-sequential/dense/BiasAdd/ReadVariableOp/resource&#10;5" xml:space="preserve" x="6" y="24" style="font-family: -apple-system, BlinkMacSystemFont, &quot;Segoe WPC&quot;, &quot;Segoe UI&quot;, Ubuntu, &quot;Droid Sans&quot;, sans-serif, &quot;PingFang SC&quot;; font-size: 9px; font-weight: normal; text-rendering: geometricprecision;"><title>float32[128]</title><tspan style="font-weight: bold;">bias</tspan><tspan>〈128〉</tspan></text><line class="node" x1="0" x2="100" y1="0" y2="0" style="stroke: rgb(51, 51, 51); fill: none; stroke-width: 1px;"/></g><g class="node-item node-item-type node-item-type-activation" transform="translate(0,50)"><path d="M0,0h100a0,0 0 0 1 0,0v15a5,5 0 0 1 -5,5h-90a5,5 0 0 1 -5,-5v-15a0,0 0 0 1 0,0z" style="stroke: rgb(0, 0, 0); fill: rgb(75, 27, 22); stroke-width: 0;"/><text x="6" y="14" style="font-family: -apple-system, BlinkMacSystemFont, &quot;Segoe WPC&quot;, &quot;Segoe UI&quot;, Ubuntu, &quot;Droid Sans&quot;, sans-serif, &quot;PingFang SC&quot;; font-size: 11px; text-rendering: geometricprecision; fill: rgb(255, 255, 255);">Relu</text></g><line class="node" x1="0" x2="100" y1="50" y2="50" style="stroke: rgb(51, 51, 51); fill: none; stroke-width: 1px;"/><path class="node border" d="M5,0h90a5,5 0 0 1 5,5v60a5,5 0 0 1 -5,5h-90a5,5 0 0 1 -5,-5v-60a5,5 0 0 1 5,-5z" style="stroke: rgb(51, 51, 51); fill: none; stroke-width: 1px;"/></g></g><g id="node-id-11" class="node graph-node" transform="translate(50,1061)" style="opacity: 1;"><g transform="translate(-50,-25)"><g class="node-item node-item-type node-item-type-layer" transform="translate(0,0)"><path d="M5,0h90a5,5 0 0 1 5,5v15a0,0 0 0 1 0,0h-100a0,0 0 0 1 0,0v-15a5,5 0 0 1 5,-5z" style="stroke: rgb(0, 0, 0); fill: rgb(51, 85, 136); stroke-width: 0;"/><text x="6" y="14" style="font-family: -apple-system, BlinkMacSystemFont, &quot;Segoe WPC&quot;, &quot;Segoe UI&quot;, Ubuntu, &quot;Droid Sans&quot;, sans-serif, &quot;PingFang SC&quot;; font-size: 11px; text-rendering: geometricprecision; fill: rgb(255, 255, 255);">FullyConnected</text><title>11</title></g><g class="node-attribute" transform="translate(0,20)"><path d="M0,0h100a0,0 0 0 1 0,0v25a5,5 0 0 1 -5,5h-90a5,5 0 0 1 -5,-5v-25a0,0 0 0 1 0,0z" style="stroke: rgb(0, 0, 0); fill: rgb(255, 255, 255); stroke-width: 0;"/><text id="initializer-sequential/dense_1/MatMul&#10;11" xml:space="preserve" x="6" y="12" style="font-family: -apple-system, BlinkMacSystemFont, &quot;Segoe WPC&quot;, &quot;Segoe UI&quot;, Ubuntu, &quot;Droid Sans&quot;, sans-serif, &quot;PingFang SC&quot;; font-size: 9px; font-weight: normal; text-rendering: geometricprecision;"><title>float32[10,128]</title><tspan style="font-weight: bold;">weights</tspan><tspan>〈10×128〉</tspan></text><text id="initializer-sequential/dense_1/BiasAdd/ReadVariableOp/resource&#10;6" xml:space="preserve" x="6" y="24" style="font-family: -apple-system, BlinkMacSystemFont, &quot;Segoe WPC&quot;, &quot;Segoe UI&quot;, Ubuntu, &quot;Droid Sans&quot;, sans-serif, &quot;PingFang SC&quot;; font-size: 9px; font-weight: normal; text-rendering: geometricprecision;"><title>float32[10]</title><tspan style="font-weight: bold;">bias</tspan><tspan>〈10〉</tspan></text><line class="node" x1="0" x2="100" y1="0" y2="0" style="stroke: rgb(51, 51, 51); fill: none; stroke-width: 1px;"/></g><path class="node border" d="M5,0h90a5,5 0 0 1 5,5v40a5,5 0 0 1 -5,5h-90a5,5 0 0 1 -5,-5v-40a5,5 0 0 1 5,-5z" style="stroke: rgb(51, 51, 51); fill: none; stroke-width: 1px;"/></g></g><g id="node-id-12" class="node graph-node" transform="translate(50,1137)" style="opacity: 1;"><g transform="translate(-28.1171875,-10)"><g class="node-item node-item-type node-item-type-activation" transform="translate(0,0)"><path d="M5,0h46.234375a5,5 0 0 1 5,5v10a5,5 0 0 1 -5,5h-46.234375a5,5 0 0 1 -5,-5v-10a5,5 0 0 1 5,-5z" style="stroke: rgb(0, 0, 0); fill: rgb(75, 27, 22); stroke-width: 0;"/><text x="6" y="14" style="font-family: -apple-system, BlinkMacSystemFont, &quot;Segoe WPC&quot;, &quot;Segoe UI&quot;, Ubuntu, &quot;Droid Sans&quot;, sans-serif, &quot;PingFang SC&quot;; font-size: 11px; text-rendering: geometricprecision; fill: rgb(255, 255, 255);">Softmax</text><title>12</title></g><path class="node border" d="M5,0h46.234375a5,5 0 0 1 5,5v10a5,5 0 0 1 -5,5h-46.234375a5,5 0 0 1 -5,-5v-10a5,5 0 0 1 5,-5z" style="stroke: rgb(51, 51, 51); fill: none; stroke-width: 1px;"/></g></g><g id="input-name-conv2d_input&#10;0" class="node graph-input" transform="translate(50,10)" style="opacity: 1;"><g transform="translate(-45.140625,-10)"><g class="node-item graph-item-input" transform="translate(0,0)"><path d="M5,0h80.28125a5,5 0 0 1 5,5v10a5,5 0 0 1 -5,5h-80.28125a5,5 0 0 1 -5,-5v-10a5,5 0 0 1 5,-5z" style="stroke: rgb(0, 0, 0); fill: rgb(238, 238, 238); stroke-width: 0;"/><text x="6" y="14" style="font-family: -apple-system, BlinkMacSystemFont, &quot;Segoe WPC&quot;, &quot;Segoe UI&quot;, Ubuntu, &quot;Droid Sans&quot;, sans-serif, &quot;PingFang SC&quot;; font-size: 11px; text-rendering: geometricprecision;">conv2d_input
0</text><title>float32[1,32,32,3]</title></g><path class="node border" d="M5,0h80.28125a5,5 0 0 1 5,5v10a5,5 0 0 1 -5,5h-80.28125a5,5 0 0 1 -5,-5v-10a5,5 0 0 1 5,-5z" style="stroke: rgb(51, 51, 51); fill: none; stroke-width: 1px;"/></g></g><g class="node" transform="translate(50,1198)" style="opacity: 1;"><g transform="translate(-33.9765625,-10)"><g class="node-item graph-item-output" transform="translate(0,0)"><path d="M5,0h57.953125a5,5 0 0 1 5,5v10a5,5 0 0 1 -5,5h-57.953125a5,5 0 0 1 -5,-5v-10a5,5 0 0 1 5,-5z" style="stroke: rgb(0, 0, 0); fill: rgb(238, 238, 238); stroke-width: 0;"/><text x="6" y="14" style="font-family: -apple-system, BlinkMacSystemFont, &quot;Segoe WPC&quot;, &quot;Segoe UI&quot;, Ubuntu, &quot;Droid Sans&quot;, sans-serif, &quot;PingFang SC&quot;; font-size: 11px; text-rendering: geometricprecision;">Identity
28</text><title>float32[1,10]</title></g><path class="node border" d="M5,0h57.953125a5,5 0 0 1 5,5v10a5,5 0 0 1 -5,5h-57.953125a5,5 0 0 1 -5,-5v-10a5,5 0 0 1 5,-5z" style="stroke: rgb(51, 51, 51); fill: none; stroke-width: 1px;"/></g></g></g></g></svg>